Coordinates
version=1
nRows=6
nColumns=36
inDegrees=yes

Units are S.I. units (second, meters, Newtons, ...)
If the header above contains a line with 'inDegrees', this indicates whether rotational values are in degrees (yes) or radians (no).

endheader
time	pelvis_tilt	pelvis_list	pelvis_rotation	pelvis_tx	pelvis_ty	pelvis_tz	hip_flexion_r	hip_adduction_r	hip_rotation_r	knee_angle_r	knee_angle_r_beta	ankle_angle_r	subtalar_angle_r	mtp_angle_r	hip_flexion_l	hip_adduction_l	hip_rotation_l	knee_angle_l	knee_angle_l_beta	ankle_angle_l	subtalar_angle_l	mtp_angle_l	lumbar_extension	lumbar_bending	lumbar_rotation	arm_flex_r	arm_add_r	arm_rot_r	elbow_flex_r	pro_sup_r	arm_flex_l	arm_add_l	arm_rot_l	elbow_flex_l	pro_sup_l
      1.46666670	    -15.95898488	      1.14214087	      2.41274160	     -0.88688383	      1.14711550	     -0.09335156	     31.33834985	      0.68342185	      3.17972035	     56.08387340	      0.97884825	     32.10425832	    -28.24492252	     -7.49999987	     36.60701191	     -2.17576750	      1.80600479	     63.82314856	      1.11392408	     24.23724490	    -10.59628756	     -7.49999987	    -12.06442722	     -0.50422768	      1.79961004	    108.36163238	    -19.22369095	     24.82040668	     87.93336855	     95.25396611	    105.87805110	    -17.97404996	     26.24989317	     97.32592717	     79.88877285
      1.47083330	    -16.14145812	      1.26130608	      3.13448746	     -0.87424672	      1.15549274	     -0.09517551	     29.88497795	     -0.27184745	      2.25180880	     54.17592727	      0.94554831	     29.71419847	    -29.36553292	     -7.49999987	     35.29882102	     -1.45428457	      2.23007599	     61.85564925	      1.07958474	     22.88250576	    -10.91967599	     -7.49999987	    -10.88936902	     -0.35976911	      1.48474809	    107.59007684	    -20.49959480	     25.48323432	     90.02505512	     94.88957971	    105.31345389	    -17.30508728	     25.97338879	     98.01497120	     80.56327544
      1.47500000	    -16.27840811	      1.33062422	      3.63691541	     -0.87378421	      1.15964046	     -0.09560702	     29.11848147	     -1.03723153	      1.36358558	     53.16642941	      0.92792924	     28.11295612	    -30.63205618	     -7.49999987	     34.68975692	     -0.86411724	      2.68809875	     60.52914159	      1.05643281	     21.92201339	    -11.34649852	     -7.49999987	    -10.02893472	     -0.41552951	      1.22947089	    108.14042339	    -21.11198020	     26.81244764	     89.24372911	     94.80130057	    105.59690895	    -16.95303872	     26.35826578	     97.58436284	     81.03282436
      1.47916670	    -16.10482224	      1.18707051	      3.93444984	     -0.86733408	      1.17489313	     -0.10155885	     27.40256833	     -1.60010574	      0.38516923	     50.70044746	      0.88488974	     25.14822755	    -31.62353649	     -7.49999987	     33.37733335	     -0.54164227	      2.99679370	     58.58662373	      1.02252948	     20.15043976	    -11.73915435	     -7.49999987	    -10.14282422	      0.04545806	      2.16824139	    110.32713307	    -21.07707261	     28.36882069	     88.65097917	     92.26787324	    105.30184691	    -15.97786189	     26.25083443	     98.42217430	     80.34201337
      1.48333330	    -15.73259371	      1.23742711	      4.02625332	     -0.85404261	      1.18619771	     -0.10231440	     25.40131470	     -2.27997371	     -1.09751543	     48.58595981	      0.84798497	     22.95047787	    -31.96349291	     -7.49999987	     31.17578737	     -0.31366457	      3.04833719	     55.80245648	      0.97393660	     18.99417670	    -10.90169728	     -7.49999987	    -10.41108991	      0.47688689	      3.46468701	    111.90569950	    -19.41972570	     28.02683270	     87.84897844	     92.19281154	    104.17869623	    -14.69995355	     24.48522450	     99.80382625	     85.23603227
      1.48750000	    -15.50724559	      1.40347418	      3.62643519	     -0.85338032	      1.19315567	     -0.10215515	     24.45545184	     -2.79091346	     -2.02333893	     47.39530433	      0.82720411	     21.43031886	    -31.70930519	     -7.49999987	     29.60239016	     -0.33109462	      2.63803785	     53.67694605	      0.93683944	     17.66137894	    -11.05418343	     -7.49999987	    -10.64465566	      0.45361619	      4.48127074	    112.35433929	    -18.64327211	     26.99098532	     88.62160287	     92.12063274	    103.80973902	    -13.68344341	     23.72875246	    100.71280006	     85.48859245
